<svg xmlns="http://www.w3.org/2000/svg" xmlns:xlink="http://www.w3.org/1999/xlink" width="500" zoomAndPan="magnify" viewBox="0 0 375 374.999991" height="500" preserveAspectRatio="xMidYMid meet" version="1.0"><defs><g/><clipPath id="4089c751a8"><path d="M 78.125 78.125 L 297 78.125 L 297 297 L 78.125 297 Z M 78.125 78.125 " clip-rule="nonzero"/></clipPath><clipPath id="61d8f5bc6a"><path d="M 78.125 187.5 C 78.125 216.507812 89.648438 244.328125 110.160156 264.839844 C 130.671875 285.351562 158.492188 296.875 187.5 296.875 C 216.507812 296.875 244.328125 285.351562 264.839844 264.839844 C 285.351562 244.328125 296.875 216.507812 296.875 187.5 C 296.875 158.492188 285.351562 130.671875 264.839844 110.160156 C 244.328125 89.648438 216.507812 78.125 187.5 78.125 C 158.492188 78.125 130.671875 89.648438 110.160156 110.160156 C 89.648438 130.671875 78.125 158.492188 78.125 187.5 Z M 78.125 187.5 " clip-rule="nonzero"/></clipPath><clipPath id="f704631ac5"><path d="M 83.648438 83.648438 L 291.398438 83.648438 L 291.398438 291.398438 L 83.648438 291.398438 Z M 83.648438 83.648438 " clip-rule="nonzero"/></clipPath><clipPath id="a5f47fbc35"><path d="M 83.648438 187.5 C 83.648438 244.855469 130.144531 291.351562 187.5 291.351562 C 244.855469 291.351562 291.351562 244.855469 291.351562 187.5 C 291.351562 130.144531 244.855469 83.648438 187.5 83.648438 C 130.144531 83.648438 83.648438 130.144531 83.648438 187.5 Z M 83.648438 187.5 " clip-rule="nonzero"/></clipPath><clipPath id="38c73c102d"><path d="M 163 226 L 238 226 L 238 251.191406 L 163 251.191406 Z M 163 226 " clip-rule="nonzero"/></clipPath><clipPath id="7ec0458d45"><path d="M 123.691406 123.691406 L 251.191406 123.691406 L 251.191406 192 L 123.691406 192 Z M 123.691406 123.691406 " clip-rule="nonzero"/></clipPath><clipPath id="eda9357902"><path d="M 99.363281 188.453125 L 106.863281 188.453125 L 106.863281 195.953125 L 99.363281 195.953125 Z M 99.363281 188.453125 " clip-rule="nonzero"/></clipPath><clipPath id="196d8bd8bd"><path d="M 99.363281 192.371094 C 99.363281 193.414062 99.773438 194.410156 100.507812 195.144531 C 101.246094 195.878906 102.242188 196.292969 103.28125 196.292969 C 104.320312 196.292969 105.316406 195.878906 106.050781 195.144531 C 106.785156 194.410156 107.199219 193.414062 107.199219 192.371094 C 107.199219 191.332031 106.785156 190.335938 106.050781 189.601562 C 105.316406 188.867188 104.320312 188.453125 103.28125 188.453125 C 102.242188 188.453125 101.246094 188.867188 100.507812 189.601562 C 99.773438 190.335938 99.363281 191.332031 99.363281 192.371094 Z M 99.363281 192.371094 " clip-rule="nonzero"/></clipPath><clipPath id="a82ba7dc37"><path d="M 267.800781 188.453125 L 275.300781 188.453125 L 275.300781 195.953125 L 267.800781 195.953125 Z M 267.800781 188.453125 " clip-rule="nonzero"/></clipPath><clipPath id="0773ba3f3b"><path d="M 267.800781 192.371094 C 267.800781 193.414062 268.214844 194.410156 268.949219 195.144531 C 269.683594 195.878906 270.679688 196.292969 271.71875 196.292969 C 272.757812 196.292969 273.753906 195.878906 274.492188 195.144531 C 275.226562 194.410156 275.636719 193.414062 275.636719 192.371094 C 275.636719 191.332031 275.226562 190.335938 274.492188 189.601562 C 273.753906 188.867188 272.757812 188.453125 271.71875 188.453125 C 270.679688 188.453125 269.683594 188.867188 268.949219 189.601562 C 268.214844 190.335938 267.800781 191.332031 267.800781 192.371094 Z M 267.800781 192.371094 " clip-rule="nonzero"/></clipPath></defs><g clip-path="url(#4089c751a8)"><g clip-path="url(#61d8f5bc6a)"><path fill="#026900" d="M 487.207031 47.578125 L 14.867188 47.578125 L 14.867188 325.871094 L 582.171875 325.871094 L 582.171875 142.535156 C 582.171875 140.984375 582.132812 139.429688 582.058594 137.878906 C 581.980469 136.324219 581.867188 134.773438 581.714844 133.230469 C 581.5625 131.683594 581.371094 130.140625 581.144531 128.601562 C 580.917969 127.066406 580.652344 125.535156 580.347656 124.011719 C 580.042969 122.484375 579.703125 120.96875 579.328125 119.460938 C 578.949219 117.953125 578.535156 116.457031 578.082031 114.96875 C 577.632812 113.484375 577.144531 112.007812 576.621094 110.542969 C 576.097656 109.082031 575.539062 107.632812 574.941406 106.195312 C 574.347656 104.761719 573.71875 103.339844 573.054688 101.933594 C 572.390625 100.53125 571.691406 99.140625 570.957031 97.769531 C 570.226562 96.402344 569.460938 95.050781 568.660156 93.714844 C 567.863281 92.382812 567.03125 91.070312 566.167969 89.777344 C 565.304688 88.484375 564.410156 87.214844 563.484375 85.96875 C 562.558594 84.71875 561.601562 83.496094 560.617188 82.292969 C 559.628906 81.089844 558.613281 79.914062 557.570312 78.765625 C 556.527344 77.613281 555.457031 76.488281 554.355469 75.386719 C 553.257812 74.289062 552.132812 73.21875 550.980469 72.175781 C 549.828125 71.128906 548.652344 70.117188 547.449219 69.128906 C 546.25 68.144531 545.023438 67.1875 543.777344 66.261719 C 542.527344 65.335938 541.257812 64.441406 539.964844 63.578125 C 538.671875 62.714844 537.359375 61.882812 536.027344 61.085938 C 534.695312 60.285156 533.34375 59.519531 531.972656 58.789062 C 530.601562 58.054688 529.214844 57.359375 527.808594 56.691406 C 526.402344 56.027344 524.984375 55.398438 523.546875 54.804688 C 522.109375 54.210938 520.660156 53.652344 519.199219 53.128906 C 517.734375 52.605469 516.257812 52.117188 514.773438 51.664062 C 513.285156 51.214844 511.789062 50.800781 510.28125 50.421875 C 508.773438 50.046875 507.257812 49.707031 505.730469 49.402344 C 504.207031 49.097656 502.675781 48.832031 501.140625 48.605469 C 499.601562 48.378906 498.058594 48.1875 496.511719 48.035156 C 494.964844 47.882812 493.417969 47.769531 491.863281 47.691406 C 490.3125 47.617188 488.757812 47.578125 487.207031 47.578125 Z M 487.207031 47.578125 " fill-opacity="1" fill-rule="nonzero"/></g></g><g clip-path="url(#f704631ac5)"><g clip-path="url(#a5f47fbc35)"><path fill="#ffffff" d="M 397.175781 68.238281 L 6.960938 68.238281 C 5.953125 68.238281 4.949219 68.289062 3.945312 68.386719 C 2.945312 68.484375 1.949219 68.632812 0.960938 68.828125 C -0.0234375 69.027344 -1 69.269531 -1.964844 69.5625 C -2.925781 69.855469 -3.871094 70.195312 -4.804688 70.578125 C -5.734375 70.964844 -6.640625 71.394531 -7.527344 71.871094 C -8.417969 72.34375 -9.277344 72.863281 -10.117188 73.421875 C -10.953125 73.980469 -11.761719 74.582031 -12.539062 75.21875 C -13.316406 75.859375 -14.058594 76.535156 -14.773438 77.246094 C -15.484375 77.957031 -16.15625 78.703125 -16.796875 79.480469 C -17.433594 80.261719 -18.03125 81.070312 -18.589844 81.90625 C -19.152344 82.742188 -19.667969 83.605469 -20.140625 84.492188 C -20.613281 85.382812 -21.042969 86.292969 -21.429688 87.222656 C -21.8125 88.152344 -22.152344 89.097656 -22.441406 90.0625 C -22.734375 91.027344 -22.976562 92 -23.171875 92.988281 C -23.367188 93.976562 -23.515625 94.972656 -23.613281 95.972656 C -23.710938 96.972656 -23.757812 97.980469 -23.757812 98.984375 L -23.757812 268.070312 C -23.757812 269.074219 -23.710938 270.078125 -23.609375 271.082031 C -23.511719 272.082031 -23.367188 273.074219 -23.167969 274.0625 C -22.972656 275.050781 -22.730469 276.023438 -22.4375 276.988281 C -22.144531 277.949219 -21.808594 278.898438 -21.421875 279.828125 C -21.039062 280.757812 -20.609375 281.664062 -20.132812 282.550781 C -19.660156 283.441406 -19.144531 284.300781 -18.585938 285.136719 C -18.023438 285.976562 -17.425781 286.78125 -16.789062 287.558594 C -16.148438 288.339844 -15.476562 289.082031 -14.765625 289.792969 C -14.050781 290.507812 -13.308594 291.179688 -12.53125 291.820312 C -11.753906 292.457031 -10.945312 293.054688 -10.109375 293.617188 C -9.273438 294.175781 -8.410156 294.691406 -7.523438 295.164062 C -6.636719 295.640625 -5.726562 296.070312 -4.796875 296.453125 C -3.867188 296.839844 -2.921875 297.179688 -1.960938 297.472656 C -0.996094 297.761719 -0.0195312 298.007812 0.964844 298.203125 C 1.953125 298.398438 2.945312 298.546875 3.949219 298.644531 C 4.949219 298.746094 5.953125 298.792969 6.960938 298.792969 L 378.300781 298.792969 C 379.167969 298.792969 380.003906 298.960938 380.804688 299.289062 C 381.605469 299.621094 382.316406 300.089844 382.929688 300.703125 L 427.894531 345.535156 L 427.894531 98.984375 C 427.894531 97.980469 427.84375 96.976562 427.746094 95.972656 C 427.648438 94.972656 427.503906 93.976562 427.304688 92.988281 C 427.109375 92 426.867188 91.027344 426.574219 90.0625 C 426.285156 89.097656 425.945312 88.152344 425.5625 87.222656 C 425.175781 86.292969 424.746094 85.382812 424.273438 84.496094 C 423.800781 83.605469 423.28125 82.746094 422.722656 81.90625 C 422.164062 81.070312 421.566406 80.261719 420.929688 79.484375 C 420.289062 78.707031 419.617188 77.960938 418.902344 77.25 C 418.191406 76.535156 417.449219 75.859375 416.671875 75.222656 C 415.890625 74.582031 415.085938 73.984375 414.25 73.425781 C 413.410156 72.863281 412.550781 72.347656 411.660156 71.871094 C 410.773438 71.398438 409.867188 70.96875 408.9375 70.582031 C 408.007812 70.195312 407.058594 69.855469 406.097656 69.566406 C 405.132812 69.273438 404.160156 69.027344 403.171875 68.832031 C 402.183594 68.632812 401.191406 68.488281 400.1875 68.386719 C 399.1875 68.289062 398.183594 68.238281 397.175781 68.238281 Z M 397.175781 68.238281 " fill-opacity="1" fill-rule="nonzero"/></g></g><g clip-path="url(#38c73c102d)"><path fill="#026900" d="M 163.3125 246.558594 C 170.773438 249.617188 178.9375 251.308594 187.5 251.308594 C 207.964844 251.308594 226.179688 241.671875 237.855469 226.691406 C 212.109375 229.804688 187.183594 236.449219 163.3125 246.558594 Z M 163.3125 246.558594 " fill-opacity="1" fill-rule="nonzero"/></g><path fill="#008100" d="M 136.707031 226.117188 C 141.003906 231.761719 146.21875 236.671875 152.136719 240.617188 C 181.496094 227.21875 212.460938 218.964844 244.613281 215.972656 C 245.367188 214.460938 246.0625 212.917969 246.699219 211.34375 C 209.34375 208.796875 172.4375 213.75 136.707031 226.117188 Z M 136.707031 226.117188 " fill-opacity="1" fill-rule="nonzero"/><path fill="#39a400" d="M 124.554688 197.980469 C 125.703125 204.9375 127.976562 211.515625 131.183594 217.519531 C 169.648438 203.863281 209.449219 198.527344 249.742188 201.601562 C 249.761719 201.511719 249.78125 201.425781 249.796875 201.335938 C 208.632812 190.664062 166.539062 189.527344 124.550781 197.984375 Z M 124.554688 197.980469 " fill-opacity="1" fill-rule="nonzero"/><g clip-path="url(#7ec0458d45)"><path fill="#ff914d" d="M 251.183594 191.417969 C 251.261719 190.121094 251.308594 188.816406 251.308594 187.5 C 251.308594 152.257812 222.738281 123.691406 187.5 123.691406 C 152.257812 123.691406 123.691406 152.257812 123.691406 187.5 C 123.691406 187.671875 123.695312 187.84375 123.695312 188.015625 C 166.425781 179.574219 209.265625 180.71875 251.183594 191.417969 Z M 251.183594 191.417969 " fill-opacity="1" fill-rule="nonzero"/></g><g fill="#026900" fill-opacity="1"><g transform="translate(100.317804, 218.561552)"><g><path d="M 3.265625 8.234375 C 2.890625 7.390625 2.65625 6.535156 2.5625 5.671875 C 2.476562 4.804688 2.519531 3.960938 2.6875 3.140625 C 2.851562 2.316406 3.140625 1.539062 3.546875 0.8125 C 3.953125 0.0820312 4.460938 -0.566406 5.078125 -1.140625 C 5.691406 -1.722656 6.394531 -2.191406 7.1875 -2.546875 C 8 -2.898438 8.828125 -3.109375 9.671875 -3.171875 C 10.515625 -3.242188 11.335938 -3.179688 12.140625 -2.984375 C 12.953125 -2.796875 13.71875 -2.484375 14.4375 -2.046875 C 15.15625 -1.617188 15.800781 -1.082031 16.375 -0.4375 C 16.957031 0.207031 17.4375 0.953125 17.8125 1.796875 C 18.175781 2.617188 18.398438 3.460938 18.484375 4.328125 C 18.578125 5.191406 18.539062 6.035156 18.375 6.859375 C 18.207031 7.679688 17.921875 8.457031 17.515625 9.1875 C 17.117188 9.914062 16.613281 10.570312 16 11.15625 C 15.382812 11.738281 14.671875 12.207031 13.859375 12.5625 C 13.066406 12.914062 12.25 13.125 11.40625 13.1875 C 10.5625 13.25 9.734375 13.179688 8.921875 12.984375 C 8.109375 12.796875 7.34375 12.484375 6.625 12.046875 C 5.90625 11.617188 5.253906 11.082031 4.671875 10.4375 C 4.097656 9.789062 3.628906 9.054688 3.265625 8.234375 Z M 6.21875 6.921875 C 6.476562 7.515625 6.828125 8.023438 7.265625 8.453125 C 7.710938 8.890625 8.21875 9.21875 8.78125 9.4375 C 9.34375 9.664062 9.9375 9.773438 10.5625 9.765625 C 11.1875 9.753906 11.8125 9.613281 12.4375 9.34375 C 13.0625 9.0625 13.585938 8.691406 14.015625 8.234375 C 14.441406 7.785156 14.757812 7.273438 14.96875 6.703125 C 15.1875 6.140625 15.285156 5.546875 15.265625 4.921875 C 15.253906 4.304688 15.117188 3.703125 14.859375 3.109375 C 14.585938 2.503906 14.226562 1.984375 13.78125 1.546875 C 13.332031 1.117188 12.828125 0.796875 12.265625 0.578125 C 11.703125 0.359375 11.109375 0.253906 10.484375 0.265625 C 9.867188 0.273438 9.25 0.421875 8.625 0.703125 C 8 0.972656 7.472656 1.332031 7.046875 1.78125 C 6.617188 2.238281 6.296875 2.75 6.078125 3.3125 C 5.859375 3.882812 5.757812 4.476562 5.78125 5.09375 C 5.800781 5.707031 5.945312 6.316406 6.21875 6.921875 Z M 6.21875 6.921875 "/></g></g></g><g fill="#026900" fill-opacity="1"><g transform="translate(110.274116, 239.114771)"><g><path d="M 3.078125 4.0625 L 0.9375 1.234375 L 13.046875 -7.9375 L 17.078125 -2.625 C 17.554688 -1.976562 17.894531 -1.3125 18.09375 -0.625 C 18.289062 0.0507812 18.359375 0.722656 18.296875 1.390625 C 18.234375 2.054688 18.035156 2.679688 17.703125 3.265625 C 17.378906 3.859375 16.910156 4.382812 16.296875 4.84375 C 15.765625 5.25 15.191406 5.53125 14.578125 5.6875 C 13.960938 5.851562 13.351562 5.894531 12.75 5.8125 C 12.15625 5.738281 11.582031 5.539062 11.03125 5.21875 L 8.484375 11.203125 L 6.03125 7.96875 L 8.484375 2.796875 L 8.0625 2.25 L 7.125 1 Z M 12.671875 -3.203125 L 9.484375 -0.78125 L 11.28125 1.578125 C 11.519531 1.898438 11.800781 2.128906 12.125 2.265625 C 12.457031 2.398438 12.800781 2.453125 13.15625 2.421875 C 13.507812 2.390625 13.84375 2.253906 14.15625 2.015625 C 14.445312 1.796875 14.65625 1.519531 14.78125 1.1875 C 14.90625 0.863281 14.941406 0.523438 14.890625 0.171875 C 14.847656 -0.179688 14.707031 -0.519531 14.46875 -0.84375 Z M 12.671875 -3.203125 "/></g></g></g><g fill="#026900" fill-opacity="1"><g transform="translate(122.395314, 254.392392)"><g><path d="M 6.421875 5.796875 C 5.742188 5.222656 5.179688 4.578125 4.734375 3.859375 C 4.285156 3.148438 3.957031 2.390625 3.75 1.578125 C 3.539062 0.773438 3.457031 -0.0351562 3.5 -0.859375 C 3.539062 -1.691406 3.710938 -2.5 4.015625 -3.28125 C 4.316406 -4.070312 4.742188 -4.800781 5.296875 -5.46875 C 5.867188 -6.15625 6.515625 -6.710938 7.234375 -7.140625 C 7.960938 -7.578125 8.726562 -7.894531 9.53125 -8.09375 C 10.332031 -8.289062 11.148438 -8.351562 11.984375 -8.28125 C 12.816406 -8.21875 13.628906 -8.03125 14.421875 -7.71875 C 15.210938 -7.414062 15.957031 -6.972656 16.65625 -6.390625 C 17.144531 -5.984375 17.585938 -5.503906 17.984375 -4.953125 C 18.390625 -4.410156 18.726562 -3.820312 19 -3.1875 C 19.269531 -2.5625 19.460938 -1.910156 19.578125 -1.234375 C 19.691406 -0.566406 19.691406 0.101562 19.578125 0.78125 C 19.472656 1.457031 19.234375 2.113281 18.859375 2.75 L 16.09375 0.453125 C 16.300781 -0.359375 16.269531 -1.144531 16 -1.90625 C 15.738281 -2.675781 15.242188 -3.367188 14.515625 -3.984375 C 14.046875 -4.367188 13.53125 -4.644531 12.96875 -4.8125 C 12.414062 -4.988281 11.847656 -5.050781 11.265625 -5 C 10.691406 -4.957031 10.125 -4.785156 9.5625 -4.484375 C 9.007812 -4.191406 8.5 -3.765625 8.03125 -3.203125 C 7.550781 -2.617188 7.210938 -2.023438 7.015625 -1.421875 C 6.828125 -0.828125 6.765625 -0.242188 6.828125 0.328125 C 6.890625 0.898438 7.0625 1.4375 7.34375 1.9375 C 7.625 2.445312 8 2.894531 8.46875 3.28125 C 9.25 3.9375 10.050781 4.304688 10.875 4.390625 C 11.707031 4.484375 12.472656 4.285156 13.171875 3.796875 L 10.046875 1.1875 L 11.859375 -1 L 18 4.109375 C 17.164062 5.148438 16.269531 5.972656 15.3125 6.578125 C 14.351562 7.179688 13.375 7.554688 12.375 7.703125 C 11.375 7.859375 10.367188 7.773438 9.359375 7.453125 C 8.359375 7.140625 7.378906 6.585938 6.421875 5.796875 Z M 6.421875 5.796875 "/></g></g></g><g fill="#026900" fill-opacity="1"><g transform="translate(139.939238, 268.089907)"><g><path d="M 14.203125 6.96875 L 10.859375 5.328125 L 11.0625 2.671875 L 5.390625 -0.109375 L 3.40625 1.671875 L 0.0625 0.03125 L 12.328125 -10.875 L 15.296875 -9.40625 Z M 11.5 -5.65625 L 7.703125 -2.25 L 11.296875 -0.484375 L 11.703125 -5.5625 L 11.8125 -6.03125 L 11.78125 -6.046875 Z M 11.5 -5.65625 "/></g></g></g><g fill="#026900" fill-opacity="1"><g transform="translate(159.11486, 276.882747)"><g><path d="M 4.96875 1.109375 L 1.515625 0.34375 L 4.8125 -14.484375 L 7.828125 -13.8125 L 12.84375 -3.046875 L 14.890625 -12.25 L 18.34375 -11.46875 L 15.046875 3.359375 L 12.0625 2.6875 L 7.015625 -8.109375 Z M 4.96875 1.109375 "/></g></g></g><g fill="#026900" fill-opacity="1"><g transform="translate(180.597144, 280.728787)"><g><path d="M 5.09375 0.1875 L 1.546875 0.0625 L 2.09375 -15.109375 L 5.640625 -14.984375 Z M 5.09375 0.1875 "/></g></g></g><g fill="#026900" fill-opacity="1"><g transform="translate(192.164465, 281.16)"><g><path d="M 8.640625 -0.921875 C 7.753906 -0.785156 6.890625 -0.789062 6.046875 -0.9375 C 5.210938 -1.09375 4.421875 -1.359375 3.671875 -1.734375 C 2.929688 -2.117188 2.269531 -2.601562 1.6875 -3.1875 C 1.101562 -3.769531 0.617188 -4.4375 0.234375 -5.1875 C -0.148438 -5.9375 -0.40625 -6.742188 -0.53125 -7.609375 C -0.65625 -8.484375 -0.644531 -9.332031 -0.5 -10.15625 C -0.351562 -10.988281 -0.0820312 -11.769531 0.3125 -12.5 C 0.707031 -13.226562 1.203125 -13.878906 1.796875 -14.453125 C 2.398438 -15.035156 3.082031 -15.515625 3.84375 -15.890625 C 4.613281 -16.265625 5.441406 -16.519531 6.328125 -16.65625 C 6.960938 -16.75 7.613281 -16.765625 8.28125 -16.703125 C 8.957031 -16.648438 9.617188 -16.503906 10.265625 -16.265625 C 10.910156 -16.035156 11.519531 -15.707031 12.09375 -15.28125 C 12.675781 -14.863281 13.191406 -14.335938 13.640625 -13.703125 C 14.085938 -13.078125 14.4375 -12.335938 14.6875 -11.484375 L 11.125 -10.96875 C 10.84375 -11.664062 10.472656 -12.210938 10.015625 -12.609375 C 9.554688 -13.003906 9.046875 -13.265625 8.484375 -13.390625 C 7.921875 -13.523438 7.328125 -13.546875 6.703125 -13.453125 C 6.097656 -13.367188 5.539062 -13.175781 5.03125 -12.875 C 4.53125 -12.570312 4.109375 -12.191406 3.765625 -11.734375 C 3.429688 -11.273438 3.1875 -10.738281 3.03125 -10.125 C 2.882812 -9.507812 2.863281 -8.835938 2.96875 -8.109375 C 3.082031 -7.367188 3.296875 -6.726562 3.609375 -6.1875 C 3.929688 -5.644531 4.320312 -5.203125 4.78125 -4.859375 C 5.238281 -4.523438 5.75 -4.296875 6.3125 -4.171875 C 6.882812 -4.046875 7.472656 -4.023438 8.078125 -4.109375 C 8.691406 -4.203125 9.25 -4.390625 9.75 -4.671875 C 10.257812 -4.960938 10.675781 -5.359375 11 -5.859375 C 11.332031 -6.367188 11.523438 -7 11.578125 -7.75 L 15.15625 -8.28125 C 15.164062 -7.382812 15.046875 -6.570312 14.796875 -5.84375 C 14.554688 -5.113281 14.222656 -4.460938 13.796875 -3.890625 C 13.378906 -3.328125 12.890625 -2.835938 12.328125 -2.421875 C 11.765625 -2.015625 11.171875 -1.6875 10.546875 -1.4375 C 9.921875 -1.1875 9.285156 -1.015625 8.640625 -0.921875 Z M 8.640625 -0.921875 "/></g></g></g><g fill="#026900" fill-opacity="1"><g transform="translate(213.393344, 277.106312)"><g/></g></g><g fill="#026900" fill-opacity="1"><g transform="translate(223.071866, 273.798195)"><g><path d="M 4.53125 -2.328125 L 1.375 -0.703125 L -5.5625 -14.21875 L 3.953125 -19.109375 L 5.390625 -16.296875 L -0.96875 -13.03125 L 0.625 -9.9375 L 6.09375 -12.734375 L 7.453125 -10.09375 L 1.984375 -7.296875 Z M 4.53125 -2.328125 "/></g></g></g><g fill="#026900" fill-opacity="1"><g transform="translate(238.879288, 265.249282)"><g><path d="M 12.234375 -10.046875 L 9.34375 -7.671875 L 7.015625 -8.953125 L 2.125 -4.9375 L 2.9375 -2.40625 L 0.046875 -0.046875 L -4.78125 -15.71875 L -2.234375 -17.828125 Z M -0.390625 -12.8125 L 1.15625 -7.9375 L 4.234375 -10.484375 L -0.203125 -12.953125 L -0.59375 -13.25 L -0.609375 -13.234375 Z M -0.390625 -12.8125 "/></g></g></g><g fill="#026900" fill-opacity="1"><g transform="translate(254.677392, 251.430217)"><g><path d="M 3.125 -4.015625 L 0.953125 -1.21875 L -11.03125 -10.546875 L -6.9375 -15.8125 C -6.445312 -16.445312 -5.894531 -16.953125 -5.28125 -17.328125 C -4.675781 -17.703125 -4.039062 -17.941406 -3.375 -18.046875 C -2.71875 -18.148438 -2.0625 -18.113281 -1.40625 -17.9375 C -0.75 -17.769531 -0.117188 -17.457031 0.484375 -17 C 1.015625 -16.582031 1.4375 -16.097656 1.75 -15.546875 C 2.0625 -15.003906 2.253906 -14.429688 2.328125 -13.828125 C 2.398438 -13.234375 2.351562 -12.625 2.1875 -12 L 8.625 -11.078125 L 6.140625 -7.890625 L 0.515625 -8.921875 L 0.09375 -8.375 L -0.875 -7.140625 Z M -6.375 -11.40625 L -3.21875 -8.953125 L -1.390625 -11.296875 C -1.148438 -11.609375 -1 -11.941406 -0.9375 -12.296875 C -0.882812 -12.648438 -0.921875 -12.992188 -1.046875 -13.328125 C -1.171875 -13.660156 -1.390625 -13.953125 -1.703125 -14.203125 C -1.992188 -14.421875 -2.3125 -14.546875 -2.65625 -14.578125 C -3.007812 -14.609375 -3.351562 -14.554688 -3.6875 -14.421875 C -4.019531 -14.285156 -4.304688 -14.0625 -4.546875 -13.75 Z M -6.375 -11.40625 "/></g></g></g><g fill="#026900" fill-opacity="1"><g transform="translate(266.41732, 235.767048)"><g><path d="M 2.09375 -4.640625 L 0.640625 -1.40625 L -13.203125 -7.640625 L -11.921875 -10.5 L -4.03125 -12.109375 L -8.03125 -19.15625 L -6.765625 -21.96875 L 7.078125 -15.734375 L 5.640625 -12.53125 L -3.0625 -16.453125 L 0.3125 -10.640625 L -0.046875 -9.828125 L -6.640625 -8.5625 Z M 2.09375 -4.640625 "/></g></g></g><g fill="#026900" fill-opacity="1"><g transform="translate(116.824839, 153.775184)"><g><path d="M 7.875 -13.734375 L 6.015625 -10.5 L 3.390625 -10.875 L 0.234375 -5.375 L 1.890625 -3.296875 L 0.03125 -0.046875 L -10.046875 -13 L -8.40625 -15.875 Z M -4.90625 -11.84375 L -1.734375 -7.84375 L 0.25 -11.3125 L -4.78125 -12.046875 L -5.25 -12.1875 L -5.265625 -12.15625 Z M -4.90625 -11.84375 "/></g></g></g><g fill="#026900" fill-opacity="1"><g transform="translate(126.233966, 137.864272)"><g><path d="M 6.25 -5.984375 C 5.632812 -5.347656 4.953125 -4.832031 4.203125 -4.4375 C 3.453125 -4.039062 2.671875 -3.769531 1.859375 -3.625 C 1.046875 -3.476562 0.226562 -3.457031 -0.59375 -3.5625 C -1.425781 -3.664062 -2.222656 -3.894531 -2.984375 -4.25 C -3.742188 -4.613281 -4.4375 -5.097656 -5.0625 -5.703125 C -5.695312 -6.316406 -6.203125 -7 -6.578125 -7.75 C -6.960938 -8.507812 -7.222656 -9.296875 -7.359375 -10.109375 C -7.492188 -10.921875 -7.5 -11.738281 -7.375 -12.5625 C -7.25 -13.394531 -7 -14.191406 -6.625 -14.953125 C -6.257812 -15.722656 -5.757812 -16.429688 -5.125 -17.078125 C -4.6875 -17.535156 -4.179688 -17.945312 -3.609375 -18.3125 C -3.035156 -18.675781 -2.425781 -18.96875 -1.78125 -19.1875 C -1.132812 -19.414062 -0.472656 -19.554688 0.203125 -19.609375 C 0.890625 -19.671875 1.566406 -19.617188 2.234375 -19.453125 C 2.898438 -19.296875 3.535156 -19.019531 4.140625 -18.625 L 1.640625 -16.03125 C 0.847656 -16.289062 0.0625 -16.3125 -0.71875 -16.09375 C -1.5 -15.882812 -2.21875 -15.4375 -2.875 -14.75 C -3.289062 -14.320312 -3.609375 -13.835938 -3.828125 -13.296875 C -4.054688 -12.753906 -4.164062 -12.191406 -4.15625 -11.609375 C -4.15625 -11.023438 -4.03125 -10.445312 -3.78125 -9.875 C -3.53125 -9.300781 -3.140625 -8.757812 -2.609375 -8.25 C -2.066406 -7.726562 -1.5 -7.347656 -0.90625 -7.109375 C -0.320312 -6.867188 0.253906 -6.757812 0.828125 -6.78125 C 1.398438 -6.800781 1.953125 -6.9375 2.484375 -7.1875 C 3.015625 -7.4375 3.488281 -7.773438 3.90625 -8.203125 C 4.613281 -8.941406 5.039062 -9.71875 5.1875 -10.53125 C 5.34375 -11.34375 5.195312 -12.117188 4.75 -12.859375 L 1.921875 -9.9375 L -0.109375 -11.90625 L 5.4375 -17.640625 C 6.414062 -16.734375 7.164062 -15.78125 7.6875 -14.78125 C 8.21875 -13.78125 8.519531 -12.773438 8.59375 -11.765625 C 8.664062 -10.765625 8.507812 -9.773438 8.125 -8.796875 C 7.75 -7.816406 7.125 -6.878906 6.25 -5.984375 Z M 6.25 -5.984375 "/></g></g></g><g fill="#026900" fill-opacity="1"><g transform="translate(140.242481, 124.048941)"><g><path d="M 4.296875 -2.71875 L 1.3125 -0.828125 L -6.8125 -13.65625 L -1.1875 -17.21875 C -0.507812 -17.65625 0.175781 -17.945312 0.875 -18.09375 C 1.582031 -18.238281 2.257812 -18.25 2.90625 -18.125 C 3.5625 -18 4.171875 -17.742188 4.734375 -17.359375 C 5.296875 -16.984375 5.78125 -16.472656 6.1875 -15.828125 C 6.550781 -15.253906 6.785156 -14.660156 6.890625 -14.046875 C 7.003906 -13.429688 6.992188 -12.828125 6.859375 -12.234375 C 6.734375 -11.640625 6.488281 -11.078125 6.125 -10.546875 L 11.875 -7.515625 L 8.453125 -5.34375 L 3.484375 -8.21875 L 2.90625 -7.859375 L 1.578125 -7.015625 Z M -2.140625 -12.890625 L 0 -9.5 L 2.515625 -11.09375 C 2.847656 -11.300781 3.097656 -11.5625 3.265625 -11.875 C 3.441406 -12.195312 3.523438 -12.535156 3.515625 -12.890625 C 3.515625 -13.253906 3.40625 -13.601562 3.1875 -13.9375 C 3 -14.25 2.742188 -14.476562 2.421875 -14.625 C 2.109375 -14.769531 1.769531 -14.832031 1.40625 -14.8125 C 1.050781 -14.800781 0.707031 -14.691406 0.375 -14.484375 Z M -2.140625 -12.890625 "/></g></g></g><g fill="#026900" fill-opacity="1"><g transform="translate(155.128162, 115.324917)"><g><path d="M 4.71875 -1.9375 L 1.4375 -0.59375 L -4.328125 -14.640625 L -1.046875 -15.984375 Z M 4.71875 -1.9375 "/></g></g></g><g fill="#026900" fill-opacity="1"><g transform="translate(164.351301, 111.787573)"><g/></g></g><g fill="#026900" fill-opacity="1"><g transform="translate(172.3526, 109.205933)"><g><path d="M 5.078125 -0.375 L 1.546875 -0.109375 L 0.4375 -15.25 L 3.546875 -15.484375 L 8.71875 -9.328125 L 13.03125 -16.171875 L 16.09375 -16.40625 L 17.203125 -1.265625 L 13.703125 -1 L 13 -10.515625 L 9.5 -4.78125 L 8.609375 -4.71875 L 4.375 -9.921875 Z M 5.078125 -0.375 "/></g></g></g><g fill="#026900" fill-opacity="1"><g transform="translate(193.65901, 108.161332)"><g><path d="M 15.5625 2.90625 L 11.890625 2.21875 L 11.375 -0.375 L 5.15625 -1.546875 L 3.734375 0.703125 L 0.0625 0.015625 L 8.96875 -13.765625 L 12.234375 -13.15625 Z M 9.546875 -8.53125 L 6.84375 -4.21875 L 10.765625 -3.484375 L 9.78125 -8.484375 L 9.765625 -8.953125 L 9.734375 -8.96875 Z M 9.546875 -8.53125 "/></g></g></g><g fill="#026900" fill-opacity="1"><g transform="translate(211.809159, 111.964268)"><g><path d="M 4.65625 2.0625 L 1.421875 0.625 L 7.5625 -13.265625 L 13.65625 -10.5625 C 14.394531 -10.238281 15.019531 -9.828125 15.53125 -9.328125 C 16.039062 -8.835938 16.425781 -8.285156 16.6875 -7.671875 C 16.945312 -7.066406 17.070312 -6.421875 17.0625 -5.734375 C 17.0625 -5.046875 16.90625 -4.351562 16.59375 -3.65625 C 16.320312 -3.039062 15.957031 -2.515625 15.5 -2.078125 C 15.050781 -1.640625 14.546875 -1.3125 13.984375 -1.09375 C 13.421875 -0.875 12.816406 -0.769531 12.171875 -0.78125 L 12.84375 5.671875 L 9.140625 4.046875 L 8.765625 -1.671875 L 8.140625 -1.953125 L 6.703125 -2.578125 Z M 9.515625 -8.9375 L 7.90625 -5.28125 L 10.625 -4.078125 C 10.988281 -3.921875 11.347656 -3.859375 11.703125 -3.890625 C 12.066406 -3.929688 12.394531 -4.050781 12.6875 -4.25 C 12.976562 -4.445312 13.203125 -4.726562 13.359375 -5.09375 C 13.503906 -5.425781 13.550781 -5.765625 13.5 -6.109375 C 13.457031 -6.460938 13.328125 -6.78125 13.109375 -7.0625 C 12.890625 -7.351562 12.597656 -7.578125 12.234375 -7.734375 Z M 9.515625 -8.9375 "/></g></g></g><g fill="#026900" fill-opacity="1"><g transform="translate(227.276856, 119.07099)"><g><path d="M 20.8125 -3.359375 L 12.5 -1.15625 L 12.25 9.203125 L 8.90625 6.6875 L 9.109375 -0.515625 L 6.15625 0.296875 L 4.078125 3.0625 L 1.234375 0.921875 L 10.359375 -11.21875 L 13.203125 -9.078125 L 8.96875 -3.453125 L 17.515625 -5.828125 Z M 20.8125 -3.359375 "/></g></g></g><g fill="#026900" fill-opacity="1"><g transform="translate(241.488772, 130.281665)"><g><path d="M 8.015625 9.40625 L 1 1.171875 L 12.546875 -8.6875 L 19.5 -0.546875 L 17.109375 1.5 L 12.46875 -3.9375 L 10.296875 -2.078125 L 14.28125 2.59375 L 12.046875 4.5 L 8.0625 -0.171875 L 5.703125 1.84375 L 10.40625 7.375 Z M 8.015625 9.40625 "/></g></g></g><g fill="#026900" fill-opacity="1"><g transform="translate(251.523789, 142.502462)"><g><path d="M 3.9375 7.171875 L 2.25 4.09375 L 12.796875 -1.6875 L 10.75 -5.421875 L 13.515625 -6.953125 L 19.28125 3.578125 L 16.515625 5.109375 L 14.484375 1.390625 Z M 3.9375 7.171875 "/></g></g></g><g clip-path="url(#eda9357902)"><g clip-path="url(#196d8bd8bd)"><path fill="#fca700" d="M 110.371094 199.421875 L 110.371094 190.8125 L 107.710938 188.152344 L 107.710938 188.136719 L 107.695312 188.136719 L 107.65625 188.09375 L 107.65625 188.136719 L 99.042969 188.136719 L 99.042969 196.746094 L 99.003906 196.746094 L 99.042969 196.789062 L 99.042969 196.804688 L 99.058594 196.804688 L 101.71875 199.460938 L 110.332031 199.460938 L 110.371094 199.503906 L 110.371094 199.460938 L 110.410156 199.460938 Z M 101.742188 199.40625 L 99.140625 196.804688 L 107.671875 196.804688 L 110.273438 199.40625 Z M 110.3125 199.367188 L 107.710938 196.761719 L 107.710938 188.234375 L 110.3125 190.835938 Z M 110.3125 199.367188 " fill-opacity="1" fill-rule="nonzero"/></g></g><g clip-path="url(#a82ba7dc37)"><g clip-path="url(#0773ba3f3b)"><path fill="#fca700" d="M 278.808594 199.421875 L 278.808594 190.8125 L 276.152344 188.152344 L 276.152344 188.136719 L 276.132812 188.136719 L 276.09375 188.09375 L 276.09375 188.136719 L 267.484375 188.136719 L 267.484375 196.746094 L 267.441406 196.746094 L 267.484375 196.789062 L 267.484375 196.804688 L 267.5 196.804688 L 270.15625 199.460938 L 278.769531 199.460938 L 278.808594 199.503906 L 278.808594 199.460938 L 278.847656 199.460938 Z M 270.179688 199.40625 L 267.578125 196.804688 L 276.109375 196.804688 L 278.710938 199.40625 Z M 278.753906 199.367188 L 276.148438 196.761719 L 276.148438 188.234375 L 278.753906 190.835938 Z M 278.753906 199.367188 " fill-opacity="1" fill-rule="nonzero"/></g></g></svg>